<svg id="Layer_1" data-name="Layer 1" xmlns="http://www.w3.org/2000/svg" xmlns:xlink="http://www.w3.org/1999/xlink" viewBox="0 0 224 224"><defs><style>.cls-1,.cls-2,.cls-3,.cls-4,.cls-7{fill:#008cc0;}.cls-1,.cls-10,.cls-11,.cls-2,.cls-3{stroke:#fff;stroke-miterlimit:10;}.cls-1{clip-rule:evenodd;}.cls-11,.cls-3,.cls-4{fill-rule:evenodd;}.cls-5{clip-path:url(#clip-path);}.cls-6{isolation:isolate;}.cls-8{clip-path:url(#clip-path-2);}.cls-9{clip-path:url(#clip-path-4);}.cls-10,.cls-11{fill:none;}.cls-12{clip-path:url(#clip-path-6);}.cls-13{clip-path:url(#clip-path-7);}.cls-14{clip-path:url(#clip-path-9);}.cls-15{clip-path:url(#clip-path-11);}.cls-16{clip-path:url(#clip-path-12);}.cls-17{clip-path:url(#clip-path-14);}.cls-18{clip-path:url(#clip-path-16);}.cls-19{clip-path:url(#clip-path-17);}.cls-20{clip-path:url(#clip-path-19);}</style><clipPath id="clip-path"><path class="cls-1" d="M90.86,115.08C62.57,85.64,105,89.39,126.41,70.74c8.51-7.41,6.62-23,15.34-30.17C162.61,23.38,185,52.74,188.72,68c7.1,29.08-19,28.2-38.63,40.15-9.49,5.77-15.63,17.18-26.21,20.59-7.82,2.53-16.19-2.84-24.28-4.27Z"/></clipPath><clipPath id="clip-path-2"><rect class="cls-2" x="46.55" y="7.6" width="165.18" height="140.24"/></clipPath><clipPath id="clip-path-4"><rect class="cls-2" x="80.83" y="34.09" width="109.08" height="96.61"/></clipPath><clipPath id="clip-path-6"><polygon class="cls-1" points="42.49 39.37 112.14 39.37 112.14 85.74 160.89 85.74 160.89 155.3 90.12 155.3 42.49 107.62 42.49 39.37"/></clipPath><clipPath id="clip-path-7"><rect class="cls-2" x="26.3" y="23.18" width="151.15" height="148.03"/></clipPath><clipPath id="clip-path-9"><rect class="cls-2" x="41.88" y="38.76" width="119.99" height="116.87"/></clipPath><clipPath id="clip-path-11"><polygon class="cls-1" points="182.28 173.08 160.89 188.66 139.5 173.08 139.5 119.35 160.89 103.77 182.28 119.35 182.28 173.08"/></clipPath><clipPath id="clip-path-12"><rect class="cls-2" x="122.91" y="87.07" width="76.35" height="118.43"/></clipPath><clipPath id="clip-path-14"><rect class="cls-2" x="138.49" y="102.65" width="45.19" height="87.26"/></clipPath><clipPath id="clip-path-16"><path class="cls-1" d="M60.17,126.32h43.31a26.09,26.09,0,1,1,0,52.17H60.17a26.09,26.09,0,0,1,0-52.17Z"/></clipPath><clipPath id="clip-path-17"><rect class="cls-2" x="18.5" y="110.44" width="127.78" height="84.15"/></clipPath><clipPath id="clip-path-19"><rect class="cls-2" x="34.09" y="126.02" width="96.61" height="52.98"/></clipPath></defs><title>Custom</title><path class="cls-4" d="M90.86,115.08C62.57,85.64,105,89.39,126.41,70.74c8.51-7.41,6.62-23,15.34-30.17C162.61,23.38,185,52.74,188.72,68c7.1,29.08-19,28.2-38.63,40.15-9.49,5.77-15.63,17.18-26.21,20.59-7.82,2.53-16.19-2.84-24.28-4.27Z"/><g class="cls-5"><g class="cls-6"><rect class="cls-7" x="46.55" y="7.6" width="165.18" height="140.24"/><g class="cls-8"><path class="cls-4" d="M90.86,115.08C62.57,85.64,105,89.39,126.41,70.74c8.51-7.41,6.62-23,15.34-30.17C162.61,23.38,185,52.74,188.72,68c7.1,29.08-19,28.2-38.63,40.15-9.49,5.77-15.63,17.18-26.21,20.59-7.82,2.53-16.19-2.84-24.28-4.27Z"/><g class="cls-5"><rect class="cls-7" x="80.83" y="34.09" width="109.08" height="96.61"/><g class="cls-9"><rect class="cls-7" x="81.45" y="28.02" width="108.47" height="108.7"/><rect class="cls-10" x="81.45" y="28.02" width="108.47" height="108.7"/></g><rect class="cls-10" x="80.83" y="34.09" width="109.08" height="96.61"/></g><path class="cls-11" d="M90.86,115.08C62.57,85.64,105,89.39,126.41,70.74c8.51-7.41,6.62-23,15.34-30.17C162.61,23.38,185,52.74,188.72,68c7.1,29.08-19,28.2-38.63,40.15-9.49,5.77-15.63,17.18-26.21,20.59-7.82,2.53-16.19-2.84-24.28-4.27Z"/><rect class="cls-7" x="80.83" y="34.09" width="109.08" height="96.61"/><g class="cls-9"><path class="cls-2" d="M90.86,115.08C62.57,85.64,105,89.39,126.41,70.74c8.51-7.41,6.62-23,15.34-30.17C162.61,23.38,185,52.74,188.72,68c7.1,29.08-19,28.2-38.63,40.15-9.49,5.77-15.63,17.18-26.21,20.59-7.82,2.53-16.19-2.84-24.28-4.27Z"/></g><rect class="cls-10" x="80.83" y="34.09" width="109.08" height="96.61"/></g><rect class="cls-10" x="46.55" y="7.6" width="165.18" height="140.24"/></g></g><path class="cls-11" d="M90.86,115.08C62.57,85.64,105,89.39,126.41,70.74c8.51-7.41,6.62-23,15.34-30.17C162.61,23.38,185,52.74,188.72,68c7.1,29.08-19,28.2-38.63,40.15-9.49,5.77-15.63,17.18-26.21,20.59-7.82,2.53-16.19-2.84-24.28-4.27Z"/><polygon class="cls-4" points="42.49 39.37 112.14 39.37 112.14 85.74 160.89 85.74 160.89 155.3 90.12 155.3 42.49 107.62 42.49 39.37"/><g class="cls-12"><g class="cls-6"><rect class="cls-7" x="26.3" y="23.18" width="151.15" height="148.03"/><g class="cls-13"><polygon class="cls-4" points="42.49 39.37 112.14 39.37 112.14 85.74 160.89 85.74 160.89 155.3 90.12 155.3 42.49 107.62 42.49 39.37"/><g class="cls-12"><rect class="cls-7" x="41.88" y="38.76" width="119.99" height="116.87"/><g class="cls-14"><rect class="cls-7" x="42.49" y="38.01" width="118.4" height="118.65"/><rect class="cls-10" x="42.49" y="38.01" width="118.4" height="118.65"/></g><rect class="cls-10" x="41.88" y="38.76" width="119.99" height="116.87"/></g><polygon class="cls-11" points="42.49 39.37 112.14 39.37 112.14 85.74 160.89 85.74 160.89 155.3 90.12 155.3 42.49 107.62 42.49 39.37"/><rect class="cls-7" x="41.88" y="38.76" width="119.99" height="116.87"/><g class="cls-14"><polygon class="cls-2" points="42.49 39.37 112.14 39.37 112.14 85.74 160.89 85.74 160.89 155.3 90.12 155.3 42.49 107.62 42.49 39.37"/></g><rect class="cls-10" x="41.88" y="38.76" width="119.99" height="116.87"/></g><rect class="cls-10" x="26.3" y="23.18" width="151.15" height="148.03"/></g></g><polygon class="cls-11" points="42.49 39.37 112.14 39.37 112.14 85.74 160.89 85.74 160.89 155.3 90.12 155.3 42.49 107.62 42.49 39.37"/><polygon class="cls-4" points="182.28 173.08 160.89 188.66 139.5 173.08 139.5 119.35 160.89 103.77 182.28 119.35 182.28 173.08"/><g class="cls-15"><g class="cls-6"><rect class="cls-7" x="122.91" y="87.07" width="76.35" height="118.43"/><g class="cls-16"><polygon class="cls-4" points="182.28 173.08 160.89 188.66 139.5 173.08 139.5 119.35 160.89 103.77 182.28 119.35 182.28 173.08"/><g class="cls-15"><rect class="cls-7" x="138.49" y="102.65" width="45.19" height="87.26"/><g class="cls-17"><rect class="cls-7" x="118.53" y="103.77" width="84.71" height="84.89"/><rect class="cls-10" x="118.53" y="103.77" width="84.71" height="84.89"/></g><rect class="cls-10" x="138.49" y="102.65" width="45.19" height="87.26"/></g><polygon class="cls-11" points="182.28 173.08 160.89 188.66 139.5 173.08 139.5 119.35 160.89 103.77 182.28 119.35 182.28 173.08"/><rect class="cls-7" x="138.49" y="102.65" width="45.19" height="87.26"/><g class="cls-17"><polygon class="cls-2" points="182.27 173.08 160.89 188.66 139.5 173.08 139.5 119.35 160.89 103.77 182.27 119.35 182.27 173.08"/></g><rect class="cls-10" x="138.49" y="102.65" width="45.19" height="87.26"/></g><rect class="cls-10" x="122.91" y="87.07" width="76.35" height="118.43"/></g></g><polygon class="cls-11" points="182.28 173.08 160.89 188.66 139.5 173.08 139.5 119.35 160.89 103.77 182.28 119.35 182.28 173.08"/><path class="cls-4" d="M60.17,126.32h43.31a26.09,26.09,0,1,1,0,52.17H60.17a26.09,26.09,0,0,1,0-52.17Z"/><g class="cls-18"><g class="cls-6"><rect class="cls-7" x="18.5" y="110.44" width="127.78" height="84.15"/><g class="cls-19"><path class="cls-4" d="M60.17,126.32h43.31a26.09,26.09,0,1,1,0,52.17H60.17a26.09,26.09,0,0,1,0-52.17Z"/><g class="cls-18"><rect class="cls-7" x="34.09" y="126.02" width="96.61" height="52.98"/><g class="cls-20"><rect class="cls-7" x="34.09" y="104.56" width="95.48" height="95.68"/><rect class="cls-10" x="34.09" y="104.56" width="95.48" height="95.68"/></g><rect class="cls-10" x="34.09" y="126.02" width="96.61" height="52.98"/></g><path class="cls-11" d="M60.17,126.32h43.31a26.09,26.09,0,1,1,0,52.17H60.17a26.09,26.09,0,0,1,0-52.17Z"/><rect class="cls-7" x="34.09" y="126.02" width="96.61" height="52.98"/><g class="cls-20"><path class="cls-2" d="M60.17,126.32h43.31a26.09,26.09,0,1,1,0,52.17H60.17a26.09,26.09,0,0,1,0-52.17Z"/></g><rect class="cls-10" x="34.09" y="126.02" width="96.61" height="52.98"/></g><rect class="cls-10" x="18.5" y="110.44" width="127.78" height="84.15"/></g></g><path class="cls-11" d="M60.17,126.32h43.31a26.09,26.09,0,1,1,0,52.17H60.17a26.09,26.09,0,0,1,0-52.17Z"/></svg>