<svg id="Layer_1" data-name="Layer 1" xmlns="http://www.w3.org/2000/svg" viewBox="0 0 224 224"><defs><style>.cls-1{fill:#008cc0;}.cls-2{fill:#fff;}</style></defs><title>Custom Four Speakers</title><polygon class="cls-1" points="158.55 87.5 158.55 79.17 143.87 65.45 136.5 65.45 135.8 64.75 135.8 42 88.2 42 88.2 64.75 87.5 65.45 80.13 65.45 65.45 79.17 65.45 87.5 64.75 88.2 42 88.2 42 135.8 64.75 135.8 65.45 136.5 65.45 144.83 80.13 158.55 87.5 158.55 88.2 159.25 88.2 182 135.8 182 135.8 159.25 136.5 158.55 143.87 158.55 158.55 144.83 158.55 136.5 159.25 135.8 182 135.8 182 88.2 159.25 88.2 158.55 87.5"/><path class="cls-1" d="M41.5,88.7V67.2A25.73,25.73,0,0,1,67.2,41.5H88.7V65l-1,1H80.33L66,79.38v8.33l-1,1Z"/><path class="cls-2" d="M88.2,42V64.75l-.7.7H80.13L65.45,79.17V87.5l-.7.7H42v-21A25.2,25.2,0,0,1,67.2,42h21m1-1h-22A26.23,26.23,0,0,0,41,67.2v22H65.16l.3-.29.7-.7.29-.3V79.6L80.52,66.45h7.39l.3-.29.7-.7.29-.3V41Z"/><path class="cls-1" d="M67.2,182.5a25.73,25.73,0,0,1-25.7-25.7V135.3H65l1,1v8.32l14.38,13.44h7.38l1,1V182.5Z"/><path class="cls-2" d="M64.75,135.8l.7.7v8.33l14.68,13.72H87.5l.7.7V182h-21A25.2,25.2,0,0,1,42,156.8v-21H64.75m.41-1H41v22A26.23,26.23,0,0,0,67.2,183h22V158.84l-.29-.3-.7-.7-.3-.29H80.52L66.45,144.4v-8.31l-.29-.3-.7-.7-.3-.29Z"/><path class="cls-1" d="M159,88.7l-1-1V79.38L143.67,66h-7.38l-1-1V41.5h21.5a25.73,25.73,0,0,1,25.7,25.7V88.7Z"/><path class="cls-2" d="M156.8,42A25.2,25.2,0,0,1,182,67.2v21H159.25l-.7-.7V79.17L143.87,65.45H136.5l-.7-.7V42h21m0-1h-22V65.16l.29.3.7.7.3.29h7.39L157.55,79.6v8.31l.29.3.7.7.3.29H183v-22A26.23,26.23,0,0,0,156.8,41Z"/><path class="cls-1" d="M135.3,182.5V159l1-1h7.38l14.38-13.44v-8.32l1-1H182.5v21.5a25.73,25.73,0,0,1-25.7,25.7Z"/><path class="cls-2" d="M182,135.8v21A25.2,25.2,0,0,1,156.8,182h-21V159.25l.7-.7h7.37l14.68-13.72V136.5l.7-.7H182m1-1H158.84l-.3.29-.7.7-.29.3v8.31l-14.07,13.15h-7.39l-.3.29-.7.7-.29.3V183h22A26.23,26.23,0,0,0,183,156.8v-22Z"/></svg>