<svg id="Layer_1" data-name="Layer 1" xmlns="http://www.w3.org/2000/svg" viewBox="0 0 224 224"><defs><style>.cls-1{fill:#008cc0;}.cls-2{fill:#fff;}</style></defs><title>Custom Side by Side Speakers</title><path class="cls-1" d="M41.5,88.7V67.2A25.73,25.73,0,0,1,67.2,41.5H88.7V65l-1,1H80.33L66,79.38v8.33l-1,1Z"/><path class="cls-2" d="M88.2,42V64.75l-.7.7H80.13L65.45,79.17V87.5l-.7.7H42v-21A25.2,25.2,0,0,1,67.2,42h21m1-1h-22A26.23,26.23,0,0,0,41,67.2v22H65.16l.3-.29.7-.7.29-.3V79.6L80.52,66.45h7.39l.3-.29.7-.7.29-.3V41Z"/><path class="cls-1" d="M159,88.7l-1-1V79.38L143.67,66h-7.38l-1-1V41.5h21.5a25.73,25.73,0,0,1,25.7,25.7V88.7Z"/><path class="cls-2" d="M156.8,42A25.2,25.2,0,0,1,182,67.2v21H159.25l-.7-.7V79.17L143.87,65.45H136.5l-.7-.7V42h21m0-1h-22V65.16l.29.3.7.7.3.29h7.39L157.55,79.6v8.31l.29.3.7.7.3.29H183v-22A26.23,26.23,0,0,0,156.8,41Z"/><path class="cls-1" d="M67.2,182.5a25.73,25.73,0,0,1-25.7-25.7V87.7h23l.41-.41V79l15-14h7.36l.41-.41v-23h48.6v23l.41.41h7.36l15,14v8.34l.41.41h23v69.1a25.73,25.73,0,0,1-25.7,25.7Z"/><path class="cls-2" d="M135.8,42V64.75l.7.7h7.37l14.68,13.72V87.5l.7.7H182v68.6A25.2,25.2,0,0,1,156.8,182H67.2A25.2,25.2,0,0,1,42,156.8V88.2H64.75l.7-.7V79.17L80.13,65.45H87.5l.7-.7V42h47.6m1-1H87.2V64.34l-.11.11H79.73l-.28.27L64.77,78.44l-.32.29v8.36l-.11.11H41v69.6A26.23,26.23,0,0,0,67.2,183h89.6A26.23,26.23,0,0,0,183,156.8V87.2H159.66l-.11-.11V78.73l-.32-.29L144.55,64.72l-.28-.27h-7.36l-.11-.11V41Z"/></svg>