<svg id="Layer_1" data-name="Layer 1" xmlns="http://www.w3.org/2000/svg" viewBox="0 0 224 224"><defs><style>.cls-1{fill:#018abd;}.cls-2{fill:#008cc0;}</style></defs><title>Two Cut Corners</title><path class="cls-1" d="M37.32,112.88v44.79a25.2,25.2,0,0,0,25.2,25.2h44.8A70,70,0,0,1,37.32,112.88Z"/><path class="cls-1" d="M107.32,42.87H62.52a25.2,25.2,0,0,0-25.2,25.2v44.8A70,70,0,0,1,107.32,42.87Z"/><path class="cls-1" d="M107.32,42.87a70,70,0,0,1,70,70v-36l-34-34Z"/><path class="cls-1" d="M107.32,182.87h36l34-34v-36A70,70,0,0,1,107.32,182.87Z"/><polygon class="cls-2" points="37.32 112.87 37.32 112.88 37.32 112.87 37.32 112.87"/><path class="cls-2" d="M107.32,42.87a70,70,0,0,0-70,70h0a70,70,0,1,0,70-70Z"/></svg>