<?xml version="1.0" encoding="UTF-8"?>
<svg width="70px" height="45px" viewBox="0 0 70 45" version="1.1" xmlns="http://www.w3.org/2000/svg" xmlns:xlink="http://www.w3.org/1999/xlink">
    <!-- Generator: Sketch 61 (89581) - https://sketch.com -->
    <title>creditcard/amex</title>
    <desc>Created with Sketch.</desc>
    <defs>
        <polygon id="path-1" points="0 44.0322581 70 44.0322581 70 0 0 0"></polygon>
    </defs>
    <g id="Symbols" stroke="none" stroke-width="1" fill="none" fill-rule="evenodd">
        <g id="card/paymentmethod" transform="translate(-30.000000, -22.000000)">
            <g id="creditcard/amex" transform="translate(30.000000, 22.000000)">
                <path d="M67.1774194,44.0322581 L2.82258065,44.0322581 C1.2633871,44.0322581 0,42.768871 0,41.2096774 L0,2.82258065 C0,1.26395161 1.2633871,0 2.82258065,0 L67.1774194,0 C68.7366129,0 70,1.26395161 70,2.82258065 L70,41.2096774 C70,42.768871 68.7366129,44.0322581 67.1774194,44.0322581" id="Fill-1" fill="#F7FAFC" fill-rule="evenodd"></path>
                <path d="M21.5651935,20.9852097 L21.5651935,20.2773065 L21.2259194,20.9852097 L18.2949516,20.9852097 L17.9274516,20.225371 L17.9274516,20.9852097 L12.4482581,20.9852097 L11.799629,19.4525484 L10.7027742,19.4525484 L10.0174516,20.9852097 L7.17398387,20.9852097 L7.17398387,16.359 L9.25817742,11.6463877 L13.2459194,11.6463877 L13.8059194,12.9815 L13.8059194,11.6565806 L18.6839032,11.6565806 L19.7559194,13.9044839 L20.8042258,11.6463877 L36.2019677,11.6463877 C36.2019677,11.6463877 37.0092258,11.6356935 37.5393065,12.0094032 L37.5376129,11.6463877 L41.4158387,11.6463877 L41.4158387,12.1567419 C41.4158387,12.1567419 42.1124516,11.6463877 43.1443871,11.6463877 L49.9891452,11.6463877 L50.5903548,13.0012581 L50.5903548,11.6463877 L54.9766452,11.6463877 L55.7720484,13.0012581 L55.7720484,11.6463877 L59.9652742,11.6463877 L59.9652742,20.9942419 L55.6580161,20.9942419 L54.6458387,19.3644839 L54.6458387,20.9852097 L49.2914032,20.9852097 L48.5377742,19.3159355 L47.4894677,19.3159355 L46.7815645,20.9852097 L43.542371,20.9852097 C43.542371,20.9852097 42.3343065,20.9699677 41.4282581,20.3213387 L41.4282581,20.9852097 L34.9764032,20.9852097 L34.9764032,18.8044839 C34.9764032,18.4877903 34.7330968,18.5098065 34.7330968,18.5098065 L34.4982581,18.5098065 L34.4982581,20.9852097 L21.5651935,20.9852097 Z" id="Fill-3" fill="#FFFFFF" fill-rule="evenodd"></path>
                <path d="M18.3467742,23.0095645 L26.8241129,23.0095645 L28.0462903,24.3943226 L29.2972581,23.0095645 L35.8151613,23.0095645 C35.8151613,23.0095645 36.4276613,23.0248065 37.0096774,23.3347258 L37.0096774,23.0095645 L42.8123387,23.0095645 C43.5490323,23.0095645 44.1683065,23.377629 44.1683065,23.377629 L44.1683065,23.0095645 L51.6283871,23.0095645 L51.6283871,23.3494032 C51.6283871,23.3494032 52.1590323,23.0095645 52.8731452,23.0095645 L57.733629,23.0095645 L57.733629,23.3494032 C57.733629,23.3494032 58.345,23.0095645 58.9930645,23.0095645 L62.8080645,23.0095645 L62.8080645,31.8182742 C62.8080645,31.8182742 62.3073387,32.3856129 61.268629,32.3856129 L56.2382258,32.3856129 L56.2382258,32.1056129 C56.2382258,32.1056129 55.7595161,32.3856129 55.0301613,32.3856129 L41.6669355,32.3856129 L41.6669355,30.1089194 C41.6669355,29.885371 41.5681452,29.8441613 41.368871,29.8441613 L41.1848387,29.8441613 L41.1848387,32.3856129 L37.0096774,32.3856129 L37.0096774,29.8599677 C37.0096774,29.8599677 36.5450806,30.1089194 35.7722581,30.1089194 L34.2695161,30.1089194 L34.2695161,32.3856129 L29.1216935,32.3856129 L27.9503226,30.9568226 L26.6987903,32.3856129 L18.3467742,32.3856129 L18.3467742,23.0095645 Z" id="Fill-5" fill="#FFFFFF" fill-rule="evenodd"></path>
                <polygon id="Fill-7" fill="#0078A9" fill-rule="evenodd" points="45.0631774 24.4153226 50.3826129 24.4153226 50.3826129 25.8418548 46.6918065 25.8418548 46.6918065 27.0854839 50.2793065 27.0854839 50.2793065 28.3426613 46.6918065 28.3426613 46.6918065 29.6512097 50.3826129 29.6512097 50.3826129 31.0427419 45.0631774 31.0427419"></polygon>
                <path d="M60.6595726,26.9975323 C62.6596532,27.1002742 62.8261855,28.0989032 62.8261855,29.1641452 C62.8261855,30.4055161 61.8049758,31.0727742 60.7408629,31.0727742 L57.3227177,31.0727742 L57.3227177,29.6513226 L59.9861048,29.6513226 C60.4365887,29.6513226 61.1094919,29.6513226 61.1094919,29.0151129 C61.1094919,28.7130968 60.9920726,28.5200323 60.5099758,28.4692258 C60.2971532,28.4387419 59.5057016,28.3947097 59.3865887,28.3924516 C57.5801371,28.3450323 57.1595726,27.4463226 57.1595726,26.3522903 C57.1595726,25.1097903 58.032879,24.4306774 59.098121,24.4306774 L62.5162661,24.4306774 L62.5162661,25.851 L60.0143306,25.851 C59.4464274,25.8566452 58.8327984,25.7838226 58.8327984,26.4262419 C58.8327984,26.8332581 59.1348145,26.9151129 59.51925,26.952371 C59.6536048,26.952371 60.5398952,26.9986613 60.6595726,26.9975323" id="Fill-9" fill="#0078A9" fill-rule="evenodd"></path>
                <path d="M54.5331613,26.9975323 C56.5332419,27.1002742 56.7003387,28.0989032 56.7003387,29.1641452 C56.7003387,30.4055161 55.6796935,31.0727742 54.6144516,31.0727742 L51.196871,31.0727742 L51.196871,29.6513226 L53.8602581,29.6513226 C54.3113065,29.6513226 54.9853387,29.6513226 54.9853387,29.0151129 C54.9853387,28.7130968 54.8662258,28.5200323 54.3852581,28.4692258 C54.1707419,28.4387419 53.3792903,28.3947097 53.2607419,28.3924516 C51.4542903,28.3450323 51.0348548,27.4463226 51.0348548,26.3522903 C51.0348548,25.1097903 51.9075968,24.4306774 52.9728387,24.4306774 L56.3904194,24.4306774 L56.3904194,25.851 L53.8901774,25.851 C53.3205806,25.8566452 52.7063871,25.7838226 52.7063871,26.4262419 C52.7063871,26.8332581 53.0095323,26.9151129 53.3945323,26.952371 C53.5271935,26.952371 54.4157419,26.9986613 54.5331613,26.9975323" id="Fill-11" fill="#0078A9" fill-rule="evenodd"></path>
                <path d="M34.6929597,27.4429919 L32.6657823,27.4429919 L32.6657823,25.8521855 L34.6986048,25.8521855 C35.3794113,25.8521855 35.5950565,26.2885565 35.5950565,26.6137177 C35.5950565,27.0579919 35.3585242,27.4429919 34.6929597,27.4429919 L34.6929597,27.4429919 Z M31.0241694,30.4208145 L28.6865081,27.6546855 L31.0241694,25.0658145 L31.0241694,30.4208145 Z M24.8026371,29.651379 L21.0525565,29.651379 L21.0525565,28.3428306 L24.6400565,28.3428306 L24.6400565,27.0856532 L21.0525565,27.0856532 L21.0525565,25.8420242 L25.0098145,25.8510565 L26.5938468,27.6546855 L24.8026371,29.651379 Z M35.2399758,24.4296048 L29.5298952,24.4296048 L27.6652984,26.4861371 L25.8611048,24.4154919 L19.4476371,24.4154919 L19.4476371,31.0429113 L25.6539274,31.0429113 L27.6065887,28.8531532 L29.5152177,31.0581532 L32.6364274,31.0581532 L32.6364274,28.8079919 L34.825621,28.8079919 C35.6695726,28.8079919 37.207879,28.7792016 37.207879,26.4562177 C37.207879,24.7987984 36.0393306,24.4296048 35.2399758,24.4296048 L35.2399758,24.4296048 Z" id="Fill-13" fill="#0078A9" fill-rule="evenodd"></path>
                <path d="M41.6948226,27.3536855 L39.6687742,27.3536855 L39.6687742,25.8520726 L41.7021613,25.8520726 C42.3829677,25.8520726 42.5974839,26.2884435 42.5974839,26.6136048 C42.5974839,27.0573145 42.3609516,27.3536855 41.6948226,27.3536855 M43.0999032,28.0395726 C43.9878871,27.5964274 44.2244194,27.00425 44.2244194,26.2048952 C44.2244194,24.7857016 43.0711129,24.430621 42.2711935,24.430621 L38.0412742,24.430621 L38.0412742,31.0580403 L39.6687742,31.0580403 L39.6687742,28.7198145 L41.7992581,28.7198145 C42.3609516,28.7198145 42.5828065,29.2820726 42.5974839,29.8443306 L42.6415161,31.0580403 L44.2244194,31.0580403 L44.1657097,29.6964274 C44.1657097,28.630621 43.8704677,28.1276371 43.0999032,28.0395726" id="Fill-15" fill="#0078A9" fill-rule="evenodd"></path>
                <mask id="mask-2" fill="white">
                    <use xlink:href="#path-1"></use>
                </mask>
                <g id="Clip-18"></g>
                <polygon id="Fill-17" fill="#0078A9" fill-rule="evenodd" mask="url(#mask-2)" points="38.6930645 19.6090323 40.3205645 19.6090323 40.3205645 12.9737097 38.6930645 12.9737097"></polygon>
                <polygon id="Fill-19" fill="#0078A9" fill-rule="evenodd" mask="url(#mask-2)" points="25.3729113 12.9816694 30.6906532 12.9816694 30.6906532 14.4082016 27.0009758 14.4082016 27.0009758 15.6518306 30.5873468 15.6518306 30.5873468 16.9090081 27.0009758 16.9090081 27.0009758 18.2175565 30.6906532 18.2175565 30.6906532 19.6090887 25.3729113 19.6090887"></polygon>
                <path d="M35.3109355,15.9045645 L33.2843226,15.9045645 L33.2843226,14.4029516 L35.3182742,14.4029516 C35.9990806,14.4029516 36.2130323,14.8393226 36.2130323,15.1644839 C36.2130323,15.6093226 35.9770645,15.9045645 35.3109355,15.9045645 M36.7160161,16.5904516 C37.6045645,16.1484355 37.8410968,15.555129 37.8410968,14.7557742 C37.8410968,13.3354516 36.6872258,12.9815 35.8873065,12.9815 L31.6568226,12.9815 L31.6568226,19.6089194 L33.2843226,19.6089194 L33.2843226,17.2718226 L35.4142419,17.2718226 C35.9770645,17.2718226 36.1983548,17.8329516 36.2130323,18.3952097 L36.2587581,19.6089194 L37.8410968,19.6089194 L37.7818226,18.2473065 C37.7818226,17.182629 37.4860161,16.6796452 36.7160161,16.5904516" id="Fill-20" fill="#0078A9" fill-rule="evenodd" mask="url(#mask-2)"></path>
                <path d="M10.1546855,16.6995161 L11.1256532,14.3827419 L12.1367016,16.6995161 L10.1546855,16.6995161 Z M21.6205726,12.9816129 L19.6233145,17.4271774 L17.6333952,12.9816129 L15.0817823,12.9816129 L15.0817823,19.3645968 L12.2405726,12.9816129 L10.0880726,12.9816129 L7.18815323,19.6090323 L8.90484677,19.6090323 L9.53992742,18.1294355 L12.7881532,18.1294355 L13.4322661,19.6090323 L16.7087177,19.6090323 L16.7087177,14.6892742 L18.8826694,19.6090323 L20.3628306,19.6090323 L22.5887177,14.771129 L22.5887177,19.6090323 L24.2162177,19.6090323 L24.2162177,12.9816129 L21.6205726,12.9816129 Z" id="Fill-21" fill="#0078A9" fill-rule="evenodd" mask="url(#mask-2)"></path>
                <path d="M47.1172258,16.7028468 L48.0865,14.3860726 L49.1065806,16.7028468 L47.1172258,16.7028468 Z M57.1119839,12.9781694 L57.1119839,17.567121 L54.3684355,12.9781694 L51.9635968,12.9781694 L51.9635968,19.2025242 L49.1906935,12.9815565 L47.0370645,12.9815565 L44.7959355,18.1152661 C44.7959355,18.1152661 43.8492419,18.1152661 43.7538387,18.092121 C43.360371,18.0113952 42.7484355,17.7347823 42.7405323,16.5662339 L42.7405323,16.0852661 C42.7405323,14.5317177 43.5844839,14.41825 44.6655323,14.41825 L45.670371,14.41825 L45.670371,12.9781694 L43.5455323,12.9781694 C42.8054516,12.9781694 41.1965806,13.5426855 41.1423871,16.2653468 C41.105129,18.1000242 41.9044839,19.6123629 43.7081129,19.6123629 L45.8538387,19.6123629 L46.4900484,18.1327661 L49.7377097,18.1327661 L50.380129,19.6123629 L53.5905323,19.6123629 L53.5905323,14.7592177 L56.5192419,19.6123629 L58.7389194,19.6123629 L58.7389194,12.9781694 L57.1119839,12.9781694 Z" id="Fill-22" fill="#0078A9" fill-rule="evenodd" mask="url(#mask-2)"></path>
            </g>
        </g>
    </g>
</svg>