<svg xmlns="http://www.w3.org/2000/svg" width="25" height="24" viewBox="0 0 25 24">
    <path fill="#A0AEC0" fill-rule="evenodd" d="M10.21 17.651h2.674v-2.674H10.21v2.674zm13.279 1.892h-14.5a.25.25 0 0 1-.25-.25v-6.209h15v6.21a.25.25 0 0 1-.25.25zm-16.25-9.325v7.935c-.016-.005-.035-.009-.045-.014a.248.248 0 0 1-.126-.145l-2.88-8.606a.253.253 0 0 1 .013-.19.255.255 0 0 1 .145-.127l13.749-4.6a.245.245 0 0 1 .192.012.25.25 0 0 1 .126.146l1.284 3.84H8.989c-.965 0-1.75.784-1.75 1.75zm16.5 0v1.366h-15v-1.366a.25.25 0 0 1 .25-.25h14.5a.25.25 0 0 1 .25.25zm-.25-1.75h-2.21l-1.444-4.315a1.736 1.736 0 0 0-.878-1.01 1.732 1.732 0 0 0-1.337-.095L3.87 7.65a1.739 1.739 0 0 0-1.011.88 1.734 1.734 0 0 0-.093 1.335l2.88 8.606a1.74 1.74 0 0 0 1.634 1.194c.171.786.871 1.38 1.709 1.38h14.5c.965 0 1.75-.786 1.75-1.75v-9.076c0-.965-.785-1.75-1.75-1.75z"/>
</svg>
