<?xml version="1.0" encoding="UTF-8"?>
<svg width="70px" height="45px" viewBox="0 0 70 45" version="1.1" xmlns="http://www.w3.org/2000/svg" xmlns:xlink="http://www.w3.org/1999/xlink">
    <!-- Generator: Sketch 61 (89581) - https://sketch.com -->
    <title>creditcard/mastercard</title>
    <desc>Created with Sketch.</desc>
    <g id="Symbols" stroke="none" stroke-width="1" fill="none" fill-rule="evenodd">
        <g id="card/paymentmethod" transform="translate(-30.000000, -22.000000)">
            <g id="creditcard/mastercard" transform="translate(30.000000, 22.000000)">
                <path d="M67.1774194,44.0322581 L2.82258065,44.0322581 C1.2633871,44.0322581 0,42.768871 0,41.2096774 L0,2.82258065 C0,1.26395161 1.2633871,0 2.82258065,0 L67.1774194,0 C68.7366129,0 70,1.26395161 70,2.82258065 L70,41.2096774 C70,42.768871 68.7366129,44.0322581 67.1774194,44.0322581" id="Fill-1" fill="#F7FAFC"></path>
                <path d="M30.454629,22.016129 C30.454629,18.2107258 32.2317258,14.8230645 35.0001129,12.6304839 C32.9593871,11.0137097 30.3806774,10.0455645 27.5750323,10.0455645 C20.9639839,10.0455645 15.6044677,15.4050806 15.6044677,22.016129 C15.6044677,28.6271774 20.9639839,33.986129 27.5750323,33.986129 C30.3806774,33.986129 32.9593871,33.0185484 35.0001129,31.4017742 C32.2317258,29.2091935 30.454629,25.8209677 30.454629,22.016129" id="Fill-3" fill="#E20D17"></path>
                <path d="M30.454629,22.016129 C30.454629,25.8209677 32.2317258,29.2091935 35.0001129,31.4017742 C37.7679355,29.2091935 39.5455968,25.8209677 39.5455968,22.016129 C39.5455968,18.2107258 37.7679355,14.8230645 35.0001129,12.6304839 C32.2317258,14.8230645 30.454629,18.2107258 30.454629,22.016129" id="Fill-5" fill="#EA610A"></path>
                <path d="M42.4246855,10.0457903 C39.6190403,10.0457903 37.0408952,11.0139355 35.0001694,12.6307097 C37.7679919,14.8227258 39.5450887,18.2109516 39.5450887,22.0163548 C39.5450887,25.8211935 37.7679919,29.2094194 35.0001694,31.402 C37.0408952,33.0187742 39.6190403,33.9863548 42.4246855,33.9863548 C49.0357339,33.9863548 54.39525,28.6274032 54.39525,22.0163548 C54.39525,15.4053065 49.0357339,10.0457903 42.4246855,10.0457903" id="Fill-7" fill="#F59E00"></path>
            </g>
        </g>
    </g>
</svg>