<?xml version="1.0" encoding="UTF-8"?>
<svg width="70px" height="45px" viewBox="0 0 70 45" version="1.1" xmlns="http://www.w3.org/2000/svg" xmlns:xlink="http://www.w3.org/1999/xlink">
    <!-- Generator: Sketch 61 (89581) - https://sketch.com -->
    <title>creditcard/visa</title>
    <desc>Created with Sketch.</desc>
    <g id="Symbols" stroke="none" stroke-width="1" fill="none" fill-rule="evenodd">
        <g id="card/paymentmethod" transform="translate(-30.000000, -22.000000)">
            <g id="creditcard/visa" transform="translate(30.000000, 22.000000)">
                <path d="M67.1774194,44.0322581 L2.82258065,44.0322581 C1.26395161,44.0322581 0,42.768871 0,41.2096774 L0,2.82258065 C0,1.26395161 1.26395161,0 2.82258065,0 L67.1774194,0 C68.7366129,0 70,1.26395161 70,2.82258065 L70,41.2096774 C70,42.768871 68.7366129,44.0322581 67.1774194,44.0322581" id="Fill-1" fill="#F7FAFC"></path>
                <polygon id="Fill-3" fill="#0066B2" points="32.0032097 29.0830806 28.3265161 29.0830806 30.6246613 14.9583226 34.3024839 14.9583226"></polygon>
                <path d="M25.2323468,14.9585484 L21.7267016,24.6733065 L21.3117823,22.5812097 L21.3117823,22.5817742 L20.0743629,16.2304032 C20.0743629,16.2304032 19.9253306,14.9585484 18.3300081,14.9585484 L12.5346855,14.9585484 L12.4669435,15.1979032 C12.4669435,15.1979032 14.2389597,15.5659677 16.314121,16.8124194 L19.5081532,29.0833065 L23.3395242,29.0833065 L29.1901694,14.9585484 L25.2323468,14.9585484 Z" id="Fill-5" fill="#0066B2"></path>
                <path d="M50.1101774,24.0872823 L52.0419516,18.8000242 L53.1297742,24.0872823 L50.1101774,24.0872823 Z M54.156629,29.08325 L57.533,29.08325 L54.5896129,14.9584919 L51.6332419,14.9584919 C50.2676774,14.9584919 49.9351774,16.01075 49.9351774,16.01075 L44.4514677,29.08325 L48.2839677,29.08325 L49.0505806,26.9855081 L53.7253387,26.9855081 L54.156629,29.08325 Z" id="Fill-7" fill="#0066B2"></path>
                <path d="M44.7384677,18.3547903 L45.2634677,15.3216452 C45.2634677,15.3216452 43.643871,14.7063226 41.9559677,14.7063226 C40.1308871,14.7063226 35.7970968,15.5039839 35.7970968,19.3822097 C35.7970968,23.0312419 40.8845161,23.0769677 40.8845161,24.992371 C40.8845161,26.9083387 36.3220968,26.5656774 34.8154032,25.3576129 L34.2695161,28.5279355 C34.2695161,28.5279355 35.9105645,29.3261613 38.4204032,29.3261613 C40.9291129,29.3261613 44.7158871,28.0260806 44.7158871,24.4910806 C44.7158871,20.8189032 39.583871,20.4756774 39.583871,18.8797903 C39.583871,17.2827742 43.1651613,17.4876935 44.7384677,18.3547903" id="Fill-9" fill="#0066B2"></path>
                <path d="M21.3116129,22.5817742 L20.0741935,16.2304032 C20.0741935,16.2304032 19.9251613,14.9585484 18.3298387,14.9585484 L12.5345161,14.9585484 L12.4667742,15.1979032 C12.4667742,15.1979032 15.2532258,15.7754032 17.9245161,17.9375 C20.4795161,20.0053226 21.3116129,22.5817742 21.3116129,22.5817742" id="Fill-11" fill="#F9A533"></path>
            </g>
        </g>
    </g>
</svg>