<svg id="Layer_1" data-name="Layer 1" xmlns="http://www.w3.org/2000/svg" viewBox="0 0 224 224"><defs><style>.cls-1{fill:none;stroke:#26afe5;stroke-linecap:round;stroke-linejoin:round;stroke-width:2px;}.cls-2{fill:#008cc0;}.cls-3{font-size:12px;fill:#fff;font-family:ProximaNova-Regular, Proxima Nova;}</style></defs><title>One Cut Right Corner</title><line class="cls-1" x1="40.91" y1="213.49" x2="183.09" y2="213.49"/><circle class="cls-2" cx="112" cy="214" r="10"/><text class="cls-3" transform="translate(108.12 217.67)">E</text><line class="cls-1" x1="166.75" y1="23.14" x2="196.75" y2="53.5"/><circle class="cls-2" cx="182.94" cy="36.19" r="10"/><text class="cls-3" transform="translate(178.88 39.69)">C</text><line class="cls-1" x1="214" y1="40.91" x2="214" y2="183.09"/><circle class="cls-2" cx="214" cy="112" r="10"/><text class="cls-3" transform="translate(210.05 115.67)">D</text><line class="cls-1" x1="10" y1="40.91" x2="10" y2="183.09"/><circle class="cls-2" cx="10" cy="112" r="10"/><text class="cls-3" transform="matrix(-1, 0, 0, 1, 13.95, 115.67)">A</text><line class="cls-1" x1="40.91" y1="9.49" x2="147.61" y2="9.49"/><circle class="cls-2" cx="95.95" cy="10" r="10"/><text class="cls-3" transform="translate(92 13.67)">B</text><path class="cls-1" d="M27.6,171.72a25,25,0,0,0,25,25"/><circle class="cls-2" cx="25.18" cy="200.14" r="10"/><text class="cls-3" transform="translate(21.88 204.64)">F</text></svg>