<svg id="Layer_1" data-name="Layer 1" xmlns="http://www.w3.org/2000/svg" xmlns:xlink="http://www.w3.org/1999/xlink" viewBox="0 0 224 224"><defs><style>.cls-1,.cls-2{fill:none;}.cls-2{stroke:#26afe5;stroke-linecap:round;stroke-linejoin:round;stroke-width:2px;}.cls-3{clip-path:url(#clip-path);}.cls-4{fill:#018abd;}.cls-5{font-size:12px;fill:#fff;font-family:ProximaNova-Regular, Proxima Nova;}.cls-6{fill:#008cc0;}.cls-7{clip-path:url(#clip-path-2);}.cls-8{clip-path:url(#clip-path-3);}.cls-9{clip-path:url(#clip-path-4);}</style><clipPath id="clip-path"><circle class="cls-1" cx="10.14" cy="112.3" r="10"/></clipPath><clipPath id="clip-path-2"><circle class="cls-1" cx="183.99" cy="36.19" r="10"/></clipPath><clipPath id="clip-path-3"><circle class="cls-1" cx="213.86" cy="112.3" r="10"/></clipPath><clipPath id="clip-path-4"><circle class="cls-1" cx="96.82" cy="214.36" r="10" transform="translate(-131.93 269.1) rotate(-79.15)"/></clipPath></defs><title>Two Cut Corners</title><line class="cls-2" x1="45.73" y1="214.65" x2="149.23" y2="214.65"/><line class="cls-2" x1="170.18" y1="23.14" x2="200.18" y2="53.5"/><line class="cls-2" x1="45.57" y1="10.51" x2="149.07" y2="10.51"/><line class="cls-2" x1="10.14" y1="46.19" x2="10.14" y2="182.37"/><g class="cls-3"><rect class="cls-4" x="-4.86" y="97.3" width="30" height="30"/></g><text class="cls-5" transform="translate(6.2 116.8)">A</text><circle class="cls-6" cx="97.32" cy="10.51" r="10" transform="translate(71.35 104.89) rotate(-80.78)"/><text class="cls-5" transform="translate(93.54 15.01)">B</text><g class="cls-7"><rect class="cls-4" x="168.99" y="21.19" width="30" height="30"/></g><text class="cls-5" transform="translate(179.94 40.69)">C</text><line class="cls-2" x1="213.86" y1="76.37" x2="213.86" y2="149.37"/><g class="cls-8"><rect class="cls-4" x="198.86" y="97.3" width="30" height="30"/></g><text class="cls-5" transform="translate(209.66 116.8)">D</text><g class="cls-9"><rect class="cls-4" x="81.82" y="199.36" width="30" height="30"/></g><text class="cls-5" transform="translate(93.4 218.86)">E</text><path class="cls-2" d="M27.64,171.72a25,25,0,0,0,25,25"/><circle class="cls-6" cx="24.07" cy="200.14" r="10"/><text class="cls-5" transform="translate(20.77 204.64)">F</text></svg>