<?xml version="1.0" standalone="no"?>
<!DOCTYPE svg PUBLIC "-//W3C//DTD SVG 20010904//EN"
 "http://www.w3.org/TR/2001/REC-SVG-20010904/DTD/svg10.dtd">
<svg version="1.0" xmlns="http://www.w3.org/2000/svg"
 width="700.000000pt" height="700.000000pt" viewBox="0 0 700.000000 700.000000"
 preserveAspectRatio="xMidYMid meet">
<metadata>
Created by potrace 1.11, written by Peter Selinger 2001-2013
</metadata>
<g transform="translate(0.000000,700.000000) scale(0.100000,-0.100000)"
fill="#000000" stroke="none">
<path d="M729 6995 c-3 -2 -21 -6 -39 -9 -102 -12 -253 -76 -350 -148 -67 -50
-151 -137 -190 -198 -16 -25 -33 -49 -38 -55 -30 -37 -87 -199 -101 -286 -15
-89 -14 -5532 0 -5609 48 -252 206 -469 429 -588 103 -56 158 -74 285 -93 71
-11 5567 -7 5605 3 194 57 300 115 421 229 110 105 187 244 230 419 17 72 18
188 18 2835 0 1873 -3 2778 -10 2815 -47 248 -210 472 -429 592 -59 33 -190
76 -265 87 -60 10 -5557 16 -5566 6z m2961 -1640 c101 -198 190 -365 199 -372
32 -24 66 -11 235 86 94 55 178 103 187 106 15 6 15 -2 -2 -87 -20 -93 -21
-100 -34 -173 -4 -22 -9 -49 -12 -60 -22 -115 -65 -335 -69 -355 -2 -14 -9
-47 -14 -75 -16 -78 -19 -94 -36 -185 -16 -85 -19 -102 -29 -150 -17 -80 -16
-96 5 -123 15 -19 31 -27 52 -27 36 0 37 1 345 335 50 55 110 120 132 144 l41
44 23 -54 c13 -30 41 -95 63 -146 27 -62 47 -96 64 -106 26 -14 30 -14 175 17
44 10 91 20 104 22 12 3 53 12 90 20 36 9 80 18 96 21 17 3 57 11 90 19 82 19
88 18 80 -8 -4 -13 -49 -153 -100 -313 -52 -159 -95 -297 -96 -305 -8 -44 13
-62 143 -124 l129 -61 -188 -152 c-432 -350 -820 -666 -845 -691 -17 -16 -28
-36 -28 -53 0 -23 55 -185 116 -342 l15 -39 -43 7 c-24 4 -54 9 -68 11 -14 3
-38 7 -55 11 -16 3 -39 7 -50 9 -11 1 -63 10 -115 19 -52 10 -104 19 -115 20
-11 2 -33 6 -50 9 -16 3 -106 19 -200 36 -93 16 -191 33 -216 38 -73 14 -109
4 -140 -39 -22 -31 -22 -69 -4 -354 2 -33 6 -114 10 -180 6 -146 15 -315 20
-411 l4 -71 -99 -1 -99 -2 4 73 c2 39 6 128 10 197 3 69 8 157 10 195 11 175
18 339 19 438 1 109 1 109 -28 132 -46 37 -54 37 -246 1 -14 -2 -92 -16 -175
-30 -82 -15 -161 -28 -175 -31 -64 -11 -321 -57 -374 -66 -32 -5 -60 -9 -61
-7 -1 2 26 82 61 178 35 96 64 186 64 200 0 34 -9 42 -365 331 -165 133 -327
265 -360 292 -33 27 -67 54 -75 60 -40 32 -178 145 -201 165 -14 12 -34 28
-43 35 -15 11 -1 20 110 72 172 80 167 66 92 298 -126 387 -149 460 -144 464
2 3 40 -3 83 -12 106 -22 181 -38 238 -49 11 -2 72 -16 135 -30 63 -14 124
-26 136 -28 39 -5 70 21 94 80 13 32 31 75 41 97 9 22 27 62 39 90 l21 49 22
-26 c12 -14 69 -76 127 -138 58 -62 134 -144 170 -183 153 -166 165 -177 198
-177 21 0 37 8 52 27 21 27 21 43 3 128 -2 11 -10 54 -18 95 -8 41 -19 100
-25 130 -5 30 -12 66 -15 80 -37 194 -85 442 -115 593 -31 158 -34 187 -21
182 9 -3 93 -51 187 -106 169 -98 205 -111 236 -86 9 6 96 170 193 362 166
326 194 380 200 373 1 -2 85 -165 185 -363z"/>
</g>
</svg>
